<svg xmlns="http://www.w3.org/2000/svg" viewBox="0 0 128 128"><defs><style>.cls-1{isolation:isolate;}.cls-2{mix-blend-mode:multiply;}.cls-3{fill:#e05951;}.cls-4{fill:#093357;}.cls-5{fill:#d4dfe9;}.cls-6{fill:#489de3;}</style></defs><title>email</title><g class="cls-1"><g id="icons" class="cls-2"><path class="cls-3" d="M16,56h96a0,0,0,0,1,0,0v54a2,2,0,0,1-2,2H18a2,2,0,0,1-2-2V56A0,0,0,0,1,16,56Z"/><path class="cls-3" d="M16,56,62.72,17.067a2,2,0,0,1,2.561,0L112,56Z"/><polygon class="cls-4" points="16 56 28 66 28 56 16 56"/><polygon class="cls-4" points="112 56 100 56 100 66 112 56"/><path class="cls-5" d="M30,28a2,2,0,0,0-2,2V66L62.72,94.933a2,2,0,0,0,2.561,0L100,66V30a2,2,0,0,0-2-2Z"/><rect class="cls-6" x="42" y="42" width="44" height="4" rx="2" ry="2"/><rect class="cls-6" x="42" y="54" width="44" height="4" rx="2" ry="2"/><rect class="cls-6" x="42" y="66" width="28" height="4" rx="2" ry="2"/></g></g></svg>