<svg xmlns="http://www.w3.org/2000/svg" viewBox="0 0 128 128"><defs><style>.cls-1{isolation:isolate;}.cls-2{mix-blend-mode:multiply;}.cls-3{fill:#e2bc00;}.cls-4{fill:#489de3;}.cls-5{fill:#fff;}</style></defs><title>conversation</title><g class="cls-1"><g id="icons" class="cls-2"><path class="cls-3" d="M74,16c33.476,0,38,14.034,38,31.346,0,9.111-1.262,17.309-7.33,23.036a5.656,5.656,0,0,0-1.741,4.919l2.463,11.639a.908.908,0,0,1-1.349.932l-14.87-9.185a5.277,5.277,0,0,0-3.39-.7A89.14,89.14,0,0,1,74,78.693c-33.476,0-38-14.034-38-31.346S40.524,16,74,16Z"/><path class="cls-4" d="M54,40C20.524,40,16,54.034,16,71.346c0,9.111,1.262,17.309,7.33,23.036A5.656,5.656,0,0,1,25.072,99.3l-2.463,11.639a.908.908,0,0,0,1.349.932l14.87-9.185a5.277,5.277,0,0,1,3.39-.7A89.14,89.14,0,0,0,54,102.693c33.476,0,38-14.034,38-31.346S87.476,40,54,40Z"/><circle class="cls-5" cx="54" cy="71" r="6"/><circle class="cls-5" cx="36" cy="71" r="6"/><circle class="cls-5" cx="72" cy="71" r="6"/></g></g></svg>