<svg xmlns="http://www.w3.org/2000/svg" viewBox="0 0 128 128"><defs><style>.cls-1{isolation:isolate;}.cls-2{mix-blend-mode:multiply;}.cls-3{fill:#e05951;}.cls-4{fill:#7569b0;}.cls-5{fill:none;stroke:#093357;stroke-linecap:round;stroke-linejoin:round;stroke-width:4px;}</style></defs><title>phone-call</title><g class="cls-1"><g id="icons" class="cls-2"><path class="cls-3" d="M53.223,74.777c-10.845-10.958-10-13.875-3.538-20.383L25.206,23.6a22.266,22.266,0,0,0-5.015,3.827c-6.383,6.317-9.833,23.9,23.155,57.232,33.334,32.988,50.915,29.538,57.232,23.155a22.266,22.266,0,0,0,3.827-5.015l-30.8-24.48C67.1,84.772,64.182,85.621,53.223,74.777Z"/><path class="cls-4" d="M50.393,53.687C57.486,46.668,53,43,38.908,25.092c-4.838-6.148-8.46-4.318-13.7-1.5l24.48,30.8C49.915,54.162,50.15,53.927,50.393,53.687Z"/><path class="cls-5" d="M107.73,68.99A38.045,38.045,0,0,0,59.01,20.27"/><path class="cls-5" d="M63.11,31.56A26.017,26.017,0,0,1,96.44,64.89"/><path class="cls-5" d="M67.22,42.84A14,14,0,0,1,85.16,60.78"/><path class="cls-4" d="M74.313,77.607C81.332,70.514,85,75,102.908,89.092c6.148,4.838,4.318,8.46,1.5,13.7l-30.8-24.48C73.838,78.085,74.073,77.85,74.313,77.607Z"/></g></g></svg>